<?xml version="1.0" encoding="UTF-8"?>
<!DOCTYPE svg PUBLIC "-//W3C//DTD SVG 1.1//EN" "http://www.w3.org/Graphics/SVG/1.1/DTD/svg11.dtd">
<!-- Creator: CorelDRAW -->
<svg xmlns="http://www.w3.org/2000/svg" xml:space="preserve" width="3in" height="0.66in" style="shape-rendering:geometricPrecision; text-rendering:geometricPrecision; image-rendering:optimizeQuality; fill-rule:evenodd; clip-rule:evenodd"
viewBox="0 0 3 0.66"
 xmlns:xlink="http://www.w3.org/1999/xlink">
 <defs>
  <style type="text/css">
   <![CDATA[
    .fil0 {fill:#ED1D24}
    .fil1 {fill:white;fill-rule:nonzero}
   ]]>
  </style>
 </defs>
 <g id="Layer_x0020_1">
  <metadata id="CorelCorpID_0Corel-Layer"/>
  <g id="_128295904">
   <polygon id="_128296000" class="fil0" points="3,-8.26772e-005 2.93337,-8.26772e-005 2.77044,0.346386 2.70717,0.211697 2.64054,0.211697 2.74295,0.429709 2.75941,0.429709 2.78147,0.429709 2.79792,0.429709 "/>
   <path id="_128295928" class="fil1" d="M0.150327 0.646492l0.149476 0 0.150327 -0.434839 -0.138437 0 -0.0602992 0.196189c-0.00325591,0.0108976 -0.00622835,0.0216535 -0.00905906,0.0319882 -0.00283071,0.0103307 -0.00537795,0.0196772 -0.00764567,0.0280236 -0.00212205,0.00835433 -0.0038189,0.0150079 -0.00509449,0.0198189 -0.00127559,0.00495669 -0.00198031,0.0075 -0.00198031,0.00764567l-0.00169685 0c0,-0.000145669 -0.000708661,-0.00268898 -0.00198425,-0.00764567 -0.00112992,-0.00481102 -0.00297244,-0.0114646 -0.00509449,-0.0198189 -0.00226772,-0.00834646 -0.00481496,-0.0176929 -0.00764567,-0.0280236 -0.00282677,-0.0103346 -0.00580315,-0.0210906 -0.00905906,-0.0319882l-0.0594528 -0.196189 -0.142681 0 0.150327 0.434839zm0.500874 0.0127402c0.0276024,-0.000141732 0.0525157,-0.00353543 0.0750197,-0.0104724 0.0223701,-0.00679528 0.042752,-0.0167047 0.0608701,-0.0294449 0.019252,-0.0133031 0.0349646,-0.028874 0.0474173,-0.0465709 0.012315,-0.0176929 0.0209488,-0.0365157 0.025622,-0.0561929l-0.135039 0c-0.00594488,0.0137323 -0.0148622,0.0243465 -0.0268937,0.0318465 -0.0118898,0.00750394 -0.0270354,0.0113228 -0.0452953,0.0114685 -0.0189685,-0.000145669 -0.035248,-0.00396457 -0.0486969,-0.0116102 -0.0135866,-0.00764173 -0.0243465,-0.0186811 -0.0325551,-0.0328386 -0.00807087,-0.0141535 -0.0135866,-0.031 -0.0164173,-0.0506732l0.312539 0c0.000283465,-0.0295827 -0.00240551,-0.0573268 -0.0079252,-0.0835157 -0.00551969,-0.026185 -0.0140118,-0.0499685 -0.0254803,-0.071622 -0.0114646,-0.0216614 -0.0257598,-0.0403425 -0.0430315,-0.0563386 -0.0186811,-0.0171299 -0.0403386,-0.0304331 -0.0651142,-0.0399134 -0.024626,-0.00948819 -0.0525118,-0.0143031 -0.0835118,-0.0144409 -0.0332638,0.000137795 -0.0635551,0.00608661 -0.0907323,0.0175512 -0.0273189,0.0114685 -0.0508189,0.0276024 -0.0706339,0.0484134 -0.0198189,0.0206654 -0.0349646,0.0448701 -0.0457205,0.072752 -0.0107559,0.0277441 -0.0161378,0.0578937 -0.0162795,0.0905945 0.000141732,0.033122 0.00538189,0.0635551 0.0159961,0.0915827 0.0106142,0.0280276 0.0260433,0.0525118 0.0461417,0.0733228 0.0201024,0.0208071 0.0444488,0.0369449 0.0729016,0.0485512 0.0285906,0.0114646 0.0608661,0.0174094 0.0968189,0.0175512zm-0.095122 -0.27687c0.00311417,-0.0174134 0.0082126,-0.0324134 0.0155709,-0.0450118 0.0073622,-0.0127441 0.0169882,-0.0225079 0.0291575,-0.0294449 0.0121772,-0.00693701 0.0268976,-0.0104764 0.0444488,-0.0104764 0.0151457,0 0.0284528,0.00353937 0.0402008,0.0104764 0.011748,0.00693701 0.0212362,0.0167008 0.0285945,0.0294449 0.00721654,0.0125984 0.011748,0.0275984 0.0135906,0.0450118l-0.171563 0zm0.333563 0.26413l0.138433 0 0 -0.195335c0.000145669,-0.0314291 0.00594882,-0.0570472 0.0172756,-0.0767244 0.0113228,-0.0196732 0.0273189,-0.0334055 0.048126,-0.0413307 0.0208071,-0.00792913 0.045437,-0.00990945 0.0738858,-0.00594488l0.00339764 0 0 -0.118902c-0.0029685,-0.00127165 -0.00664961,-0.00212598 -0.0110394,-0.00269291 -0.00438976,-0.00042126 -0.00976772,-0.000704724 -0.0161378,-0.000704724 -0.0175512,0 -0.0332638,0.00254724 -0.0474173,0.0079252 -0.0141575,0.00524016 -0.0270354,0.0133071 -0.0387874,0.0243504 -0.0117441,0.0110394 -0.0226496,0.0251929 -0.0326969,0.0424606l-0.00254724 0 0 -0.0679409 -0.132492 0 0 0.434839zm0.300441 0l0.138433 0 0 -0.434839 -0.138433 0 0 0.434839zm0 -0.471433l0.138433 0 0 -0.112106 -0.138433 0 0 0.112106zm0.167098 0.471433l0.389831 0 0 -0.107008 -0.157126 0c-0.00509055,0 -0.0111811,0 -0.0182559,0.000141732 -0.00722047,0.000141732 -0.0142953,0.000141732 -0.021374,0.000283465 -0.00693701,0.000137795 -0.0128819,0.000279528 -0.0175512,0.000279528 -0.00467323,0.000141732 -0.00722047,0.000141732 -0.0073622,0.000141732l0 -0.00254724c0.000141732,-0.000141732 0.00183858,-0.00184252 0.00509449,-0.00524016 0.00325591,-0.00339764 0.0073622,-0.00764173 0.0121772,-0.0125945 0.00495276,-0.00495669 0.00976378,-0.00990945 0.0145787,-0.0148661 0.00495276,-0.00495276 0.00905906,-0.00919685 0.012311,-0.0124528l0.164768 -0.179909 0 -0.101067 -0.356709 0 0 0.105311 0.13589 0c0.00353937,0 0.00820866,0 0.0141535,-0.000141732 0.00580709,-0.000141732 0.011752,-0.000141732 0.0176929,-0.000283465 0.00608661,-0.000137795 0.0110433,-0.000279528 0.0151496,-0.000279528 0.00424409,-0.000141732 0.00637008,-0.000141732 0.00651181,-0.000141732l0 0.00254724c-0.000141732,0.000141732 -0.00155906,0.00155512 -0.00425197,0.00438583 -0.00282677,0.00283465 -0.00622441,0.00637008 -0.0103307,0.0106181 -0.0041063,0.00424409 -0.00820866,0.00849213 -0.012315,0.0127402 -0.00410236,0.00410236 -0.00764173,0.00778346 -0.0104724,0.0106142l-0.172409 0.186705 0 0.102764zm0.616378 -0.0849291c-0.0201024,-0.000141732 -0.0369449,-0.00566142 -0.0505354,-0.016563 -0.0135866,-0.0108976 -0.0239213,-0.026185 -0.0308583,-0.0458583 -0.00679528,-0.0196772 -0.0103307,-0.042748 -0.0103307,-0.0692205 0,-0.0264724 0.00353543,-0.0496811 0.0103307,-0.0695 0.00693701,-0.0198189 0.0172717,-0.035248 0.0308583,-0.0461457 0.0135906,-0.0110394 0.0304331,-0.0167047 0.0505354,-0.0168465 0.0200984,0.000141732 0.0370866,0.00580709 0.050815,0.0168465 0.0137323,0.0108976 0.024063,0.0263268 0.0311417,0.0461457 0.0070748,0.0198189 0.0106142,0.0430276 0.0106142,0.0695 0,0.0264724 -0.00353937,0.0495433 -0.0106142,0.0692205 -0.00707874,0.0196732 -0.0174094,0.0349606 -0.0311417,0.0458583 -0.0137283,0.0109016 -0.0307165,0.0164213 -0.050815,0.016563zm0.000846457 0.0985197c0.0351063,-0.000141732 0.0669567,-0.00608661 0.0954094,-0.0175512 0.0283071,-0.0116102 0.0527953,-0.0277441 0.0730394,-0.0485512 0.0203819,-0.0206693 0.0359528,-0.0450157 0.0468504,-0.0729016 0.0109016,-0.0278819 0.0164213,-0.058315 0.016563,-0.0911575 -0.000141732,-0.0328386 -0.00566142,-0.0632717 -0.016563,-0.0911575 -0.0108976,-0.0278858 -0.0264685,-0.0522323 -0.0468504,-0.0730394 -0.0202441,-0.0206654 -0.0447323,-0.0368031 -0.0730394,-0.0484094 -0.0284528,-0.0114685 -0.0603031,-0.0174094 -0.0954094,-0.0175512 -0.0349606,0.000141732 -0.0666654,0.00608268 -0.095122,0.0175512 -0.0284488,0.0116063 -0.052937,0.0277441 -0.0734606,0.0484094 -0.0205236,0.0208071 -0.0362402,0.0451535 -0.0472795,0.0730394 -0.0111811,0.0278858 -0.0167008,0.0583189 -0.0168425,0.0911575 0.000141732,0.0328425 0.00566142,0.0632756 0.0168425,0.0911575 0.0110394,0.0278858 0.0267559,0.0522323 0.0472795,0.0729016 0.0205236,0.0208071 0.0450118,0.0369409 0.0734606,0.0485512 0.0284567,0.0114646 0.0601614,0.0174094 0.095122,0.0175512zm0.253732 -0.0135906l0.138433 0 0 -0.24035c0.000145669,-0.0179764 0.00325591,-0.0338307 0.00962598,-0.047563 0.00637008,-0.0137283 0.0151496,-0.0244843 0.0266142,-0.0322717 0.0114646,-0.0077874 0.0247677,-0.011748 0.0402008,-0.0118898 0.015,0.000141732 0.0275984,0.00339764 0.0376496,0.00976772 0.0100512,0.00651181 0.0176929,0.0155709 0.0226496,0.0270354 0.00509449,0.0116102 0.00764173,0.0250512 0.00764173,0.0404843l0 0.254787 0.138437 0 0 -0.282815c0,-0.0243465 -0.0033937,-0.0465709 -0.010189,-0.0666693 -0.00679528,-0.0199606 -0.0167047,-0.0373701 -0.0297283,-0.0520906 -0.0130236,-0.0145787 -0.028878,-0.0259055 -0.0475591,-0.0338307 -0.0185433,-0.00807087 -0.0399173,-0.0120354 -0.0637008,-0.0121732 -0.0300079,0.000137795 -0.0557677,0.00622835 -0.0775669,0.0185433 -0.0217992,0.012311 -0.040626,0.0301496 -0.0566181,0.0536496l-0.00255118 0 0 -0.0594528 -0.133339 0 0 0.434839z"/>
  </g>
 </g>
</svg>
